HIERARCHY
ROOT Hips
{
	OFFSET	0.000000	0.000000	0.000000
	CHANNELS 6 Xposition Yposition Zposition Zrotation Xrotation Yrotation
	JOINT LeftUpLeg
	{
		OFFSET	12.830505	-7.049846	-1.643436
		CHANNELS 3 Zrotation Xrotation Yrotation
		JOINT LeftLeg
		{
			OFFSET	0.620834	-39.957500	-1.919341
			CHANNELS 3 Zrotation Xrotation Yrotation
			JOINT LeftFoot
			{
				OFFSET	-0.413890	-44.704761	-3.870325
				CHANNELS 3 Zrotation Xrotation Yrotation
				JOINT LeftFootHeel
				{
					OFFSET	0.164738	-8.918193	-6.555130
					CHANNELS 3 Zrotation Xrotation Yrotation
					End Site
					{
						OFFSET	-0.604053	0.000000	21.044330
					}
				}
			}
		}
	}
	JOINT RightUpLeg
	{
		OFFSET	-12.830505	-7.049846	-1.643436
		CHANNELS 3 Zrotation Xrotation Yrotation
		JOINT RightLeg
		{
			OFFSET	-0.620834	-39.957500	-1.919341
			CHANNELS 3 Zrotation Xrotation Yrotation
			JOINT RightFoot
			{
				OFFSET	0.413890	-44.704761	-3.870325
				CHANNELS 3 Zrotation Xrotation Yrotation
				JOINT RightFootHeel
				{
					OFFSET	-0.164738	-8.918193	-6.555130
					CHANNELS 3 Zrotation Xrotation Yrotation
					End Site
					{
						OFFSET	0.604053	0.000000	21.044330
					}
				}
			}
		}
	}
	JOINT Spine
	{
		OFFSET	0.000000	12.498170	1.820647
		CHANNELS 3 Zrotation Xrotation Yrotation
		JOINT Spine1
		{
			OFFSET	0.000000	7.620000	0.000000
			CHANNELS 3 Zrotation Xrotation Yrotation
			JOINT LeftShoulder
			{
				OFFSET	9.167800	29.136339	-5.551221
				CHANNELS 3 Zrotation Xrotation Yrotation
				JOINT LeftArm
				{
					OFFSET	12.133453	-3.880866	1.461963
					CHANNELS 3 Zrotation Xrotation Yrotation
					JOINT LeftForeArm
					{
						OFFSET	2.507115	-31.664908	-1.069404
						CHANNELS 3 Zrotation Xrotation Yrotation
						JOINT LeftHand
						{
							OFFSET	4.116172	-24.512624	5.009439
							CHANNELS 3 Zrotation Xrotation Yrotation
							End Site
							{
								OFFSET	-0.213136	-10.931856	2.182134
							}
						}
					}
				}
			}
			JOINT RightShoulder
			{
				OFFSET	-9.167800	29.136339	-5.551221
				CHANNELS 3 Zrotation Xrotation Yrotation
				JOINT RightArm
				{
					OFFSET	-12.133453	-3.880866	1.461963
					CHANNELS 3 Zrotation Xrotation Yrotation
					JOINT RightForeArm
					{
						OFFSET	-2.507115	-31.664908	-1.069404
						CHANNELS 3 Zrotation Xrotation Yrotation
						JOINT RightHand
						{
							OFFSET	-4.116172	-24.512624	5.009439
							CHANNELS 3 Zrotation Xrotation Yrotation
							End Site
							{
								OFFSET	0.213136	-10.931856	2.182134
							}
						}
					}
				}
			}
			JOINT Neck
			{
				OFFSET	0.000000	32.926272	-3.635654
				CHANNELS 3 Zrotation Xrotation Yrotation
				JOINT Head
				{
					OFFSET	0.000000	12.481178	4.646143
					CHANNELS 3 Zrotation Xrotation Yrotation
					End Site
					{
						OFFSET	0.000000	17.715204	-2.222063
					}
				}
			}
		}
	}
}
MOTION
Frames:     7
Frame Time: 0.016667
-4.182210	94.834879	-4.792273	-4.292184	0.691967	63.596806	15.674567	-37.355053	14.446096	13.025118	41.840363	-15.613976	-14.407511	-7.734178	-19.417711	0.	0.	0.	-20.098919	-23.500416	-24.151985	5.961444	46.356701	-7.580976	7.947110	-17.283413	-13.282540	0.	0.	0.	0.000000	0.000000	-0.000003	2.530074	28.077517	-2.601115	16.063044	-0.619698	4.111219	-28.062527	-39.920311	-19.081526	-104.310486	-33.249168	-80.267258	-18.149427	12.356960	-7.708987	-8.820547	-2.596445	1.027890	-42.067966	-18.156511	-44.851490	-36.977676	-116.735474	-41.802731	-4.739463	-0.979342	14.381123	0.079190	-0.608547	-18.896925	16.546312	-9.132648	-12.433523	
-4.203692	94.850381	-4.796587	-4.291753	0.683844	63.519558	15.734900	-37.339584	14.468333	12.961880	41.873169	-15.502986	-14.400665	-7.736495	-19.436768	0.	0.	0.	-20.059679	-23.523174	-24.071363	5.993615	46.308556	-7.620635	7.921835	-17.236788	-13.272021	0.	0.	0.	-0.000000	0.000000	0.000000	2.475573	28.022297	-2.511927	16.086725	-0.588485	4.080660	-28.018938	-39.915890	-19.021992	-104.234421	-33.267574	-80.210075	-18.089466	12.270502	-7.741285	-8.783776	-2.558079	1.012838	-42.038319	-18.117998	-44.851387	-36.990929	-116.812080	-41.824234	-4.825090	-0.925508	14.311634	0.056637	-0.608098	-18.965954	16.565794	-9.118994	-12.468555	
-4.209245	94.870797	-4.798862	-4.291328	0.675487	63.440014	15.797019	-37.323650	14.492803	12.899850	41.906643	-15.408216	-14.392773	-7.743320	-19.440559	0.	0.	0.	-20.031660	-23.518839	-24.102362	5.933790	46.247475	-7.517529	7.899456	-17.184517	-13.245523	0.	0.	0.	-0.000000	0.000000	0.000002	2.420532	27.967981	-2.420286	16.095507	-0.552523	4.075075	-27.956600	-39.922348	-18.976494	-104.197212	-33.301296	-80.167107	-18.011799	12.181046	-7.797132	-8.756999	-2.534009	1.013930	-41.965740	-18.081192	-44.866352	-36.995861	-116.697472	-41.941105	-4.758217	-1.012301	14.372457	0.052388	-0.600620	-18.987648	16.586077	-9.083271	-12.477926	
-4.209245	94.870797	-4.798862	-4.291328	0.675487	63.440014	15.797019	-37.323650	14.492803	12.899850	41.906643	-15.408216	-14.392773	-7.743320	-19.440559	0.	0.	0.	-20.031660	-23.518839	-24.102362	5.933790	46.247475	-7.517529	7.899456	-17.184517	-13.245523	0.	0.	0.	-0.000000	0.000000	0.000002	2.420532	27.967981	-2.420286	16.095507	-0.552523	4.075075	-27.956600	-39.922348	-18.976494	-104.197212	-33.301296	-80.167107	-18.011799	12.181046	-7.797132	-8.756999	-2.534009	1.013930	-41.965740	-18.081192	-44.866352	-36.995861	-116.697472	-41.941105	-4.758217	-1.012301	14.372457	0.052388	-0.600620	-18.987648	16.586077	-9.083271	-12.477926	
-4.221760	94.894109	-4.806785	-4.290794	0.664835	63.338734	15.877851	-37.297001	14.573921	12.869233	41.931728	-15.439344	-14.379063	-7.773540	-19.364496	0.	0.	0.	-20.007196	-23.518764	-24.120804	5.890434	46.176365	-7.530169	7.905177	-17.103245	-13.100603	0.	0.	0.	0.000000	-0.000000	-0.000000	2.347974	27.890003	-2.303522	16.109510	-0.495074	4.066065	-27.904186	-39.916649	-18.938362	-104.188889	-33.317738	-80.154457	-17.747719	12.029672	-7.881329	-8.719187	-2.499909	1.015458	-41.886993	-18.082668	-44.913544	-37.057522	-116.641884	-42.008942	-4.747673	-0.960853	14.357889	0.041857	-0.595272	-18.995232	16.634371	-9.037376	-12.422399	
-4.234796	94.911172	-4.810840	-4.290488	0.658586	63.279339	15.899603	-37.276417	14.618881	12.879869	41.929764	-15.446504	-14.375921	-7.781177	-19.343960	0.	0.	0.	-19.988434	-23.518644	-24.133352	5.864046	46.126537	-7.518380	7.897243	-17.052069	-13.035822	0.	0.	0.	-0.000000	-0.000001	-0.000002	2.306623	27.847380	-2.235223	16.121218	-0.446723	4.058260	-27.852062	-39.923656	-18.898586	-104.244148	-33.355991	-80.168518	-17.648062	11.874689	-7.892007	-8.701175	-2.471779	1.020358	-41.881313	-18.083963	-44.982670	-37.229984	-116.548752	-42.214550	-4.755880	-0.966813	14.396548	0.029614	-0.598711	-18.999571	16.676243	-9.006096	-12.445122	
-4.235037	94.917722	-4.840952	-4.290158	0.651608	63.212959	15.928442	-37.252949	14.677602	12.893270	41.927017	-15.463903	-14.372134	-7.790378	-19.319370	0.	0.	0.	-20.007095	-23.522526	-24.096762	5.934499	46.085400	-7.541451	7.872156	-17.005846	-13.025363	0.	0.	0.	-0.000000	-0.000001	-0.000001	2.267070	27.820063	-2.159495	16.129339	-0.413171	4.052840	-27.827608	-39.930813	-18.880127	-104.271370	-33.365646	-80.129807	-17.446846	11.644497	-7.912879	-8.692615	-2.439049	1.029533	-41.856953	-18.065001	-45.064796	-37.326866	-116.501282	-42.345070	-4.778937	-0.978840	14.450471	0.025733	-0.611762	-19.007671	16.685123	-8.999377	-12.421032	
